Coordinates
version=1
nRows=26
nColumns=24
inDegrees=yes

Units are S.I. units (second, meters, Newtons, ...)
Angles are in degrees.

endheader
time	pelvis_tilt	pelvis_list	pelvis_rotation	pelvis_tx	pelvis_ty	pelvis_tz	hip_flexion_r	hip_adduction_r	hip_rotation_r	knee_angle_r	ankle_angle_r	subtalar_angle_r	mtp_angle_r	hip_flexion_l	hip_adduction_l	hip_rotation_l	knee_angle_l	ankle_angle_l	subtalar_angle_l	mtp_angle_l	lumbar_extension	lumbar_bending	lumbar_rotation
      3.91500000	    -18.68723127	      3.13276168	     -5.09545462	     -1.90865991	     -0.04124669	     -0.28974490	      1.39262203	     -2.58771132	     -2.36653970	    -21.40491744	      5.12313724	      4.26717079	      7.46240774	     45.88081594	     -1.54772266	    -17.94939266	    -16.27132347	     -2.41699267	      6.66684906	     22.58147544	     21.03413572	     -1.64501917	     -4.54169648
      3.92000000	    -18.73234977	      3.41230683	     -5.27313828	     -1.90070724	     -0.04153990	     -0.29031290	      1.56764951	     -3.09501454	     -2.42527914	    -22.32391014	      4.03022325	      4.64744862	      7.82742988	     45.76972556	     -1.33538865	    -17.88132358	    -16.76714561	     -3.08974117	      6.04142495	     22.50993203	     21.32312558	     -1.87211640	     -4.27051219
      3.92500000	    -18.70102911	      3.68392292	     -5.25496012	     -1.89267383	     -0.04172999	     -0.29122545	      1.63552983	     -3.67832110	     -2.93062413	    -23.14095324	      2.71982802	      5.06947715	      9.98210830	     45.58008160	     -0.94412844	    -17.54890976	    -17.19368212	     -3.98732351	      5.21748750	     22.69953399	     21.52543748	     -2.16059407	     -4.19213397
      3.93000000	    -18.73901031	      4.03123981	     -5.36969273	     -1.88449882	     -0.04183650	     -0.29190979	      1.83679836	     -4.29120208	     -3.05754842	    -23.98421782	      1.21369624	      5.14737551	     12.05694185	     45.42285638	     -0.59489013	    -17.39920500	    -17.58094272	     -4.85860455	      4.39190606	     22.66269143	     21.84700595	     -2.47113272	     -3.95837725
      3.93500000	    -18.73781980	      4.35841607	     -5.48300054	     -1.87648197	     -0.04185686	     -0.29261360	      2.08131683	     -4.89063901	     -3.18126408	    -24.93075723	     -0.37985231	      5.17673823	     14.05120466	     45.23785025	     -0.23802709	    -17.05100574	    -17.96828970	     -5.72487899	      3.49998137	     22.40214882	     22.09443290	     -2.76502958	     -3.71453942
      3.94000000	    -18.79851484	      4.69341637	     -5.57041443	     -1.86856876	     -0.04193190	     -0.29346217	      2.49327675	     -5.52531849	     -3.35934443	    -26.05359894	     -1.94814831	      5.47168426	     15.24894659	     45.15735285	      0.15817260	    -16.62584841	    -18.39678322	     -6.59987873	      2.38759487	     21.96769261	     22.38841294	     -3.05449772	     -3.52549884
      3.94500000	    -18.81805602	      5.05822037	     -5.62588604	     -1.86046958	     -0.04185511	     -0.29427210	      2.83260083	     -6.17142690	     -3.44697531	    -27.01344052	     -3.86141505	      5.20483985	     18.03806488	     45.00726948	      0.62060025	    -16.09340944	    -18.82252918	     -7.29391674	      1.34892237	     21.10280691	     22.67430390	     -3.39679282	     -3.34730893
      3.95000000	    -18.85207958	      5.40968111	     -5.69571123	     -1.85255446	     -0.04179267	     -0.29511920	      3.29235398	     -6.80639510	     -3.47483260	    -28.13090857	     -5.76671406	      5.07103969	     20.08030815	     44.91530676	      1.06803085	    -15.54269911	    -19.31969828	     -7.88061555	      0.18509971	     20.04892765	     22.94172816	     -3.71665486	     -3.20198980
      3.95500000	    -18.91966455	      5.77420991	     -5.74071947	     -1.84474467	     -0.04178144	     -0.29602656	      3.88221121	     -7.46345368	     -3.51401121	    -29.41577490	     -7.64704731	      5.11439012	     21.08032738	     44.88207497	      1.54959632	    -14.92892957	    -19.83949327	     -8.41472010	     -1.13574025	     19.18545384	     23.22923956	     -4.04310529	     -3.04386719
      3.96000000	    -18.93890502	      6.12496051	     -5.75987016	     -1.83678859	     -0.04165413	     -0.29686452	      4.38065188	     -8.07200301	     -3.45091717	    -30.51584524	     -9.82161733	      4.56379788	     23.79864323	     44.79942592	      2.03795042	    -14.31586422	    -20.48164222	     -8.50434504	     -2.03616028	     17.26069809	     23.48729153	     -4.38696559	     -2.93527032
      3.96500000	    -18.98319151	      6.47801524	     -5.77943942	     -1.82911488	     -0.04161687	     -0.29779587	      5.05078110	     -8.69583297	     -3.36995206	    -31.89173893	    -11.84310829	      4.38261672	     24.74741979	     44.76737045	      2.53107985	    -13.73547670	    -21.09133689	     -8.68425102	     -3.25006018	     16.19374442	     23.72070014	     -4.71389439	     -2.82380138
      3.97000000	    -19.04467638	      6.83546665	     -5.74283181	     -1.82125251	     -0.04156321	     -0.29868715	      5.70664956	     -9.29158673	     -3.24094562	    -33.15755777	    -14.02099054	      3.81971614	     26.56038677	     44.74794036	      3.05017018	    -13.22444177	    -21.80189680	     -8.45518462	     -4.01459713	     14.24665152	     24.00571232	     -5.07951920	     -2.79818985
      3.97500000	    -19.00668813	      7.13257719	     -5.80849612	     -1.81378109	     -0.04142688	     -0.29949487	      6.38757463	     -9.79807109	     -2.93456377	    -34.58374352	    -16.10934376	      3.33861830	     27.52169224	     44.63227824	      3.45815031	    -12.75909468	    -22.49222619	     -8.19210087	     -4.86175573	     12.93185007	     24.11323786	     -5.35094859	     -2.62845247
      3.98000000	    -19.01224483	      7.43957523	     -5.79921761	     -1.80621571	     -0.04132450	     -0.30028800	      7.11507557	    -10.29023644	     -2.64872271	    -36.00391708	    -18.21576250	      2.68295398	     28.53722009	     44.54958756	      3.89623803	    -12.40594712	    -23.21273922	     -7.70225462	     -5.36085603	     11.32473302	     24.28365176	     -5.66976758	     -2.56643208
      3.98500000	    -18.86792814	      7.74698597	     -5.79781062	     -1.79868309	     -0.04102525	     -0.30088570	      7.71196159	    -10.74579014	     -2.29973010	    -37.47180336	    -20.25833889	      1.93320734	     28.59611924	     44.24799850	      4.31516446	    -12.23547072	    -23.77768811	     -7.29520851	     -5.88363053	     11.00351591	     24.28677371	     -6.02923967	     -2.55257194
      3.99000000	    -18.96784522	      8.03281574	     -5.77575451	     -1.79131841	     -0.04102774	     -0.30170756	      8.64998785	    -11.16487708	     -1.91324646	    -39.01166542	    -22.18233051	      1.24614206	     29.28878067	     44.24316039	      4.71894046	    -11.99233326	    -24.50279694	     -6.53701198	     -6.04624708	      9.05077683	     24.52455786	     -6.31095957	     -2.48831020
      3.99500000	    -18.82231200	      8.27645723	     -5.79708157	     -1.78413371	     -0.04071409	     -0.30236638	      9.36299499	    -11.51372139	     -1.48796137	    -40.57546682	    -24.02594032	      0.43288675	     29.28662897	     43.93552300	      5.05841070	    -11.98512404	    -25.08802406	     -5.93647932	     -6.31868426	      8.33481808	     24.46065069	     -6.58490540	     -2.45099745
      4.00000000	    -18.69900639	      8.58069804	     -5.71181561	     -1.77685773	     -0.04041883	     -0.30304312	     10.09325457	    -11.92776508	     -1.17950383	    -42.15360551	    -25.68123161	     -0.46266303	     29.15207032	     43.57125651	      5.52398573	    -11.88682899	    -25.50536874	     -5.38374871	     -6.52893716	      8.15590731	     24.43605210	     -6.97412286	     -2.48872501
      4.00500000	    -18.73692509	      8.78515832	     -5.74349109	     -1.76985522	     -0.04025618	     -0.30357324	     11.10353001	    -12.13313427	     -0.64101141	    -43.81259923	    -27.18081331	     -1.33303944	     28.55051971	     43.40803073	      5.75913013	    -12.00126742	    -26.04092683	     -4.57989819	     -6.36872913	      7.25411205	     24.54973002	     -7.18847643	     -2.42463912
      4.01000000	    -18.58084507	      9.06205248	     -5.64035520	     -1.76279898	     -0.03987063	     -0.30427334	     11.85977396	    -12.48411404	     -0.35163060	    -45.41251895	    -28.42038464	     -2.32020950	     28.24283493	     42.94787145	      6.21817797	    -11.97914278	    -26.33851307	     -4.02317905	     -6.48629360	      7.13732880	     24.44653009	     -7.55618432	     -2.49639276
      4.01500000	    -18.59960369	      9.26471868	     -5.61650137	     -1.75593762	     -0.03964408	     -0.30473549	     12.89656312	    -12.63846250	      0.13209840	    -47.13625224	    -29.31591755	     -3.11350832	     26.48540591	     42.68615037	      6.47819966	    -12.12198475	    -26.72494433	     -3.20639848	     -6.11039119	      6.42980405	     24.51408269	     -7.80873242	     -2.49846607
      4.02000000	    -18.44005194	      9.48276180	     -5.54703023	     -1.74903457	     -0.03912245	     -0.30538162	     13.69155396	    -12.86316329	      0.47570938	    -48.67842378	    -30.07123928	     -4.10737669	     26.18437061	     42.14214246	      6.86550432	    -12.16327834	    -26.87650657	     -2.67287598	     -6.18213369	      6.46712481	     24.38445693	     -8.10184365	     -2.55714004
      4.02500000	    -18.46548950	      9.65033478	     -5.54042949	     -1.74234435	     -0.03878260	     -0.30574102	     14.77357419	    -12.90448327	      1.00250154	    -50.35212649	    -30.33260861	     -4.81788731	     24.30400857	     41.80304533	      7.07119527	    -12.36691800	    -27.06998242	     -1.99155191	     -5.81951233	      6.43624331	     24.43740448	     -8.31888771	     -2.56921529
      4.03000000	    -18.33821442	      9.79234631	     -5.53503835	     -1.73574476	     -0.03819228	     -0.30621196	     15.66853466	    -12.94079632	      1.44747850	    -51.88261725	    -30.35575569	     -5.68260104	     23.50278087	     41.25450166	      7.32274853	    -12.49453235	    -27.14562996	     -1.46768831	     -5.74877606	      6.52518067	     24.30129467	     -8.51597877	     -2.58591000
      4.03500000	    -18.24232760	      9.93760641	     -5.39779526	     -1.72898898	     -0.03758447	     -0.30682771	     16.51686711	    -13.01535434	      1.73569415	    -53.28807237	    -30.04005690	     -6.46650452	     23.28480204	     40.67838126	      7.67314312	    -12.50322942	    -27.12762947	     -0.94276668	     -5.61999205	      6.64920038	     24.21247132	     -8.77213724	     -2.77758349
      4.04000000	    -18.28613162	     10.00926551	     -5.39166936	     -1.72249606	     -0.03704250	     -0.30720565	     17.60793786	    -12.87775430	      2.23802743	    -54.76078177	    -29.28397636	     -6.93252009	     21.80428406	     40.24698074	      7.81551502	    -12.63952293	    -27.09852608	     -0.40988078	     -5.34285169	      6.89039510	     24.25436455	     -8.88247412	     -2.84595786
